# xmcd
#
# Track frame offsets: 
#        150
#        13657
#        26325
#        36747
#        47020
#        59795
#        72279
#        84428
#        97820
#        109017
#        120377
#        130352
#        143147
#        155491
#        169014
#        180444
#        191564
#        205076
#        217891
#        228001
#        239531
#        249714
#        260164
#        271412
#
# Disc length: 3768 seconds
#
# Revision: 0
# Processed by: cddbd v1.5.2PL0 Copyright (c) Steve Scherf et al.
# Submitted via: ExactAudioCopy v1.0b1
#
DISCID=540eb618
DTITLE=Various Artist - Groovesville USA
DYEAR=2010
DGENRE=R&B
TTITLE0=J.J. Barnes - Baby Please Come Back Home
TTITLE1=Sharon Soul - Girl Crazy
TTITLE2=Johnnie Taylor - Love On A Lease Plan
TTITLE3=Darrell Banks - Somebody (Somewhere) Needs You
TTITLE4=Melvin Davis - I'm The One Who Loves You
TTITLE5=Jackey Beavers - A Love That Never Grows Cold
TTITLE6=The Holidays - Never Alone
TTITLE7=Buddy Smith - When You Lose The One You Love
TTITLE8=The Parliaments - Don't Be Sore At Me
TTITLE9=Steve Mancha - Friday Night
TTITLE10=The O'Jays - I'll Never Forget You
TTITLE11=Rose Batiste - I Miss My Baby
TTITLE12=Edwin Starr - Has It Happened To You Yet
TTITLE13=The Professionals - That's Why I Love You
TTITLE14=Tony Hester - Just Can't Leave You
TTITLE15=Pat Lewis - Genie
TTITLE16=Joey Kingfish - Did My Baby Call
TTITLE17=Herman Lewis - Who's Kissing You Tonite
TTITLE18=Sam Ward - Sister Lee
TTITLE19=Willie Hatcher - Good Things
TTITLE20=Andrea Henry - I Need You Like A Baby
TTITLE21=The Tokays - Baby, Baby, Baby (You're My Heart's Desire)
TTITLE22=The Debonaires - Headache In My Heart
TTITLE23=Robert Ward - Deeper In Love
EXTD=
EXTT0=
EXTT1=
EXTT2=
EXTT3=
EXTT4=
EXTT5=
EXTT6=
EXTT7=
EXTT8=
EXTT9=
EXTT10=
EXTT11=
EXTT12=
EXTT13=
EXTT14=
EXTT15=
EXTT16=
EXTT17=
EXTT18=
EXTT19=
EXTT20=
EXTT21=
EXTT22=
EXTT23=
PLAYORDER=
